<svg id="Layer_1" data-name="Layer 1" xmlns="http://www.w3.org/2000/svg" width="2.8in" height="2.9in" viewBox="0 0 198.8 208.7"><title>sloth-bg</title><path d="M72.1,59.9A12.5,12.5,0,1,1,59.6,47.3h0A12.5,12.5,0,0,1,72.1,59.9Zm37.1-4.3a.8.8,0,0,0-.2.4c-.9,1.5-21.4,34.5-49.4,34.5S11.1,57.5,10.3,56a.5.5,0,0,1-.2-.4,22.5,22.5,0,0,1,.3-16.9c3.3-8,10.8-14.4,22.3-19,7.7-3.1,15-5.7,26.8-6.1h.3c11.8.4,19,3,26.8,6.1,11.5,4.6,19,11,22.3,19a23.5,23.5,0,0,1,.3,16.9ZM96.1,61.9l-7.7-4.2a7.9,7.9,0,0,1-4,1,9.1,9.1,0,0,1-9-9.1h0a9.1,9.1,0,0,1,9-9h0a9,9,0,0,1,9.1,8.2l8.9,4.8.6-.9a15.7,15.7,0,0,0-.5-11.5C99.9,35.1,93.7,30,84,26c-7-2.8-13.7-5.1-24.4-5.6s-17,2.7-24.4,5.6c-9.6,4-15.9,9-18.5,15.2a16.8,16.8,0,0,0-.4,11.5l.6.9,8.9-4.8a9.1,9.1,0,0,1,18.1.8h0a9.1,9.1,0,0,1-9,9.1h-.1a7.9,7.9,0,0,1-4-1l-7.6,4.2c7.6,9.2,21,21.8,36.4,21.8S88.4,71.1,96.1,61.9Z" transform="translate(-8.6 -13.6)" fill="#d8c2ab"/><path d="M168.8,191.6a12.5,12.5,0,1,1-12.5-12.5h.1a12.4,12.4,0,0,1,12.4,12.4Zm37.1-4.2a.8.8,0,0,1-.2.4c-.8,1.4-21.3,34.5-49.3,34.5s-48.5-33.1-49.4-34.5a.5.5,0,0,0-.2-.4,23.5,23.5,0,0,1,.3-16.9c3.3-8,10.8-14.4,22.3-19.1,7.8-3,15-5.7,26.8-6.1h.3c11.8.4,19.1,3.1,26.8,6.1,11.5,4.7,19,11.1,22.3,19.1a22.5,22.5,0,0,1,.3,16.9Zm-13.1,6.2-7.6-4.1a9,9,0,1,1-4-17.1h0a9,9,0,0,1,9,8.2l8.9,4.8.6-1a16.9,16.9,0,0,0-.4-11.5c-2.6-6.1-8.9-11.2-18.5-15.1-7.1-2.9-13.8-5.2-24.4-5.6s-17.1,2.6-24.4,5.6c-9.7,4-15.9,9-18.5,15.1a16.9,16.9,0,0,0-.5,11.5l.6,1,8.9-4.8a9,9,0,0,1,18,1.6,8.9,8.9,0,0,1-8.9,8.2,7.8,7.8,0,0,1-4-.9l-7.7,4.1c7.7,9.2,21,21.8,36.5,21.8s28.8-12.6,36.4-21.8Z" transform="translate(-8.6 -13.6)" fill="#d8c2ab"/></svg>